<svg width="24" height="24" viewBox="0 0 24 24" fill="none" xmlns="http://www.w3.org/2000/svg">
<path fill-rule="evenodd" clip-rule="evenodd" d="M11.9999 2.89998C10.2387 2.89998 8.65318 2.9876 7.29606 3.11041C5.67413 3.25718 5.1142 3.32494 4.49817 3.69572C4.02393 3.98117 3.47227 4.585 3.23073 5.08304C2.91957 5.72462 2.89995 6.39196 2.89995 8.27959V11.1097C2.89995 12.7533 2.91119 13.3603 3.06343 13.8258C3.39039 14.8255 4.17439 15.6095 5.17416 15.9365C5.63966 16.0887 6.24664 16.1 7.89022 16.1C7.9106 16.1 7.93111 16.0999 7.95172 16.0999C8.19457 16.0995 8.45214 16.099 8.69684 16.1575C9.17602 16.272 9.59967 16.5514 9.8937 16.9467C10.0438 17.1486 10.1449 17.3855 10.2402 17.6089C10.2482 17.6278 10.2563 17.6467 10.2643 17.6654L10.3028 17.7552C10.6737 18.6207 10.9312 19.2199 11.1538 19.644C11.3876 20.0893 11.5064 20.1835 11.5273 20.1964C11.8171 20.3752 12.1828 20.3752 12.4726 20.1964C12.4935 20.1835 12.6123 20.0893 12.8461 19.644C13.0687 19.2199 13.3262 18.6207 13.6971 17.7552L13.7356 17.6654C13.7436 17.6467 13.7517 17.6278 13.7597 17.6089C13.855 17.3855 13.956 17.1486 14.1062 16.9467C14.4002 16.5514 14.8239 16.272 15.3031 16.1575C15.5478 16.099 15.8053 16.0995 16.0482 16.0999C16.0688 16.0999 16.0893 16.1 16.1097 16.1C17.7533 16.1 18.3602 16.0887 18.8257 15.9365C19.8255 15.6095 20.6095 14.8255 20.9365 13.8258C21.0887 13.3603 21.0999 12.7533 21.0999 11.1097V8.27959C21.0999 6.39196 21.0803 5.72462 20.7692 5.08304C20.5276 4.585 19.976 3.98117 19.5017 3.69572C18.8857 3.32494 18.3258 3.25718 16.7038 3.11041C15.3467 2.9876 13.7612 2.89998 11.9999 2.89998ZM7.13384 1.31773C8.53942 1.19054 10.1793 1.09998 11.9999 1.09998C13.8206 1.09998 15.4605 1.19054 16.8661 1.31773C16.9124 1.32193 16.9583 1.32607 17.0038 1.33016C18.445 1.46008 19.4246 1.54838 20.43 2.15353C21.2031 2.61889 21.995 3.48562 22.3887 4.29756C22.9011 5.35395 22.9006 6.45908 22.9 8.0999C22.9 8.15909 22.8999 8.21898 22.8999 8.27959V11.1097C22.8999 11.1695 22.9 11.2284 22.9 11.2866C22.9004 12.6889 22.9007 13.6105 22.6473 14.3853C22.142 15.9304 20.9303 17.142 19.3852 17.6473C18.6105 17.9007 17.6889 17.9004 16.2865 17.9C16.2284 17.9 16.1695 17.9 16.1097 17.9C15.9488 17.9 15.8566 17.9002 15.787 17.9032C15.7435 17.9051 15.7252 17.9077 15.7205 17.9084C15.6525 17.9249 15.5923 17.9647 15.5505 18.0209C15.5552 18.0146 15.5474 18.0226 15.5201 18.0792C15.4899 18.142 15.4534 18.2266 15.39 18.3745L15.3358 18.5011C14.9844 19.321 14.6994 19.986 14.4399 20.4805C14.1876 20.9611 13.8817 21.442 13.4178 21.7283C12.5486 22.2646 11.4513 22.2646 10.5821 21.7283C10.1182 21.442 9.81226 20.9611 9.56001 20.4805C9.30049 19.986 9.01548 19.321 8.66411 18.5011L8.60986 18.3745C8.54647 18.2266 8.50998 18.142 8.47975 18.0792C8.46087 18.0399 8.45132 18.0241 8.4488 18.0201C8.40682 17.9641 8.34654 17.9245 8.27841 17.9082C8.28608 17.91 8.27568 17.906 8.21294 17.9032C8.14331 17.9002 8.05113 17.9 7.89022 17.9C7.83042 17.9 7.77147 17.9 7.71335 17.9C6.31099 17.9004 5.38941 17.9007 4.61464 17.6473C3.06955 17.142 1.85791 15.9304 1.3526 14.3853C1.09921 13.6105 1.09949 12.6889 1.09991 11.2866C1.09993 11.2284 1.09995 11.1695 1.09995 11.1097V8.27959C1.09995 8.21898 1.09992 8.15909 1.0999 8.0999C1.09925 6.45909 1.09881 5.35395 1.61115 4.29756C2.00493 3.48562 2.79677 2.61889 3.56992 2.15353C4.57532 1.54838 5.5549 1.46008 6.99611 1.33016C7.04155 1.32607 7.08746 1.32193 7.13384 1.31773Z" fill="white"/>
</svg>
