<svg width="24" height="24" viewBox="0 0 24 24" fill="none" xmlns="http://www.w3.org/2000/svg">
<path fill-rule="evenodd" clip-rule="evenodd" d="M8.40888 3.94106C7.73721 3.44593 7.2849 3.33414 7.0422 3.38151C6.04095 3.57691 5.44743 3.96667 4.6433 4.77079C3.54569 5.86839 3.01312 6.68796 3.24507 7.93058C3.51213 9.36125 4.81683 11.5448 8.41285 15.1408C12.0086 18.7366 14.2054 20.055 15.644 20.3277C16.3107 20.4541 16.8185 20.3553 17.2741 20.1309C17.7612 19.891 18.2301 19.4872 18.7681 18.9257C19.2451 18.4279 19.5347 18.0804 19.7372 17.7385C19.9302 17.4128 20.067 17.0527 20.1727 16.5118C20.2201 16.2691 20.1084 15.8168 19.6131 15.145C19.1512 14.5185 18.4996 13.8963 17.8972 13.3883C17.4997 13.0532 16.8847 13.0318 16.3879 13.4037L14.8696 14.5403C13.5001 15.5656 11.5863 15.4187 10.378 14.2104L9.34327 13.1757C8.13496 11.9674 7.9881 10.0536 9.01334 8.68408L10.1499 7.1658C10.5218 6.66899 10.5005 6.05399 10.1653 5.65648C9.6574 5.05422 9.03526 4.4028 8.40888 3.94106ZM9.59561 2.33119C10.405 2.92787 11.144 3.71475 11.6942 4.36717C12.697 5.55639 12.6152 7.20989 11.751 8.36437L10.6144 9.88265C10.191 10.4483 10.2457 11.2497 10.7575 11.7614L11.7922 12.7962C12.304 13.308 13.1054 13.3627 13.671 12.9393L15.1894 11.8026C16.3438 10.9384 17.9972 10.8566 19.1865 11.8593C19.839 12.4095 20.6261 13.1486 21.2229 13.9582C21.7863 14.7224 22.3533 15.7809 22.1356 16.8952C21.9958 17.6108 21.7906 18.1964 21.4579 18.758C21.1347 19.3034 20.7149 19.7847 20.2122 20.3094C19.6295 20.9175 18.9652 21.5274 18.1578 21.9251C17.3188 22.3383 16.3707 22.501 15.2716 22.2927C13.1786 21.896 10.6037 20.1601 6.99863 16.555C3.39382 12.9502 1.66894 10.3864 1.27903 8.29757C0.854018 6.02068 2.03709 4.54855 3.2291 3.35656C4.21369 2.37199 5.1473 1.71358 6.65912 1.41854C7.77324 1.20111 8.83146 1.76789 9.59561 2.33119Z" fill="black"/>
</svg>
